<?xml version="1.0" encoding="utf-8"?>
<!-- Generator: Adobe Illustrator 23.0.1, SVG Export Plug-In . SVG Version: 6.00 Build 0)  -->
<svg version="1.1" id="Camada_1" xmlns="http://www.w3.org/2000/svg" xmlns:xlink="http://www.w3.org/1999/xlink" x="0px" y="0px"
	 viewBox="0 0 6442 6709.9" style="enable-background:new 0 0 6442 6709.9;" xml:space="preserve">
<style type="text/css">
	.st0{fill:#0A2463;}
</style>
<text transform="matrix(1 0 0 1 352.922 7538.8828)" style="font-family:'Arial-BoldMT'; font-size:3.2768px;">Created by annes curnio</text>
<text transform="matrix(1 0 0 1 352.922 7542.1592)" style="font-family:'Arial-BoldMT'; font-size:3.2768px;">from the Noun Project</text>
<g>
	<path class="st0" d="M1216.8,2778.9v617.7c0,250.4,203.2,453.7,453.7,453.7h406.4c250.4,0,454.5-203.2,454.5-453.7v-736.1
		c0-250.4-204-453.7-454.5-453.7h-202.4c-320-4.8-456.8-86.4-514.5-154.4c-60-70.4-50.4-141.6-50.4-143.2c7.2-36.8-13.6-73.6-48-88
		c-35.2-14.4-75.2-2.4-96.8,28.8c-155.2,228-214.4,432.1-176.8,607.3C1015.9,2585.2,1092.7,2693.3,1216.8,2778.9z"/>
	<path class="st0" d="M2076.9,4010.2h-406.4c-57.6,0-112.8-8-165.6-23.2v129.6c0,40-11.2,76.8-28.8,109.6h796.1
		c-17.6-32.8-28.8-69.6-28.8-109.6V3987C2190.5,4002.2,2134.5,4010.2,2076.9,4010.2z"/>
	<path class="st0" d="M2867.4,4667.9c-26.9-128.4-115.3-230.8-230.1-281.3H1110.8c-114.4,50.5-203,152.7-229.3,280.5L662.3,5719.2
		c-4.8,23.2,1.6,48,16.8,66.4c15.2,19.2,37.6,29.6,61.6,29.6h294.8l187-671.9c11.9-42.6,55.9-67.1,98.5-55.6
		c42.6,11.9,67.5,56,55.6,98.6l-175,628.9h1336.3l-166.6-629.7c-11.3-42.7,14.2-86.5,56.9-97.8c42.9-11.5,86.5,14.1,97.8,56.9
		l177.4,670.7h303.1c0.8,0,1.6,0,1.6,0c44.8,0,80-35.2,80-80c0-11.2-2.4-21.6-6.4-31.2L2867.4,4667.9z M1877.5,5513
		c-44.2,0-80.5-35.8-80.5-80c0-44.2,35.4-80,79.5-80h0.9c44.2,0,80,35.8,80,80C1957.5,5477.2,1921.7,5513,1877.5,5513z
		 M1877.5,5221.4c-44.2,0-80.5-35.8-80.5-80c0-44.2,35.4-80,79.5-80h0.9c44.2,0,80,35.8,80,80
		C1957.5,5185.6,1921.7,5221.4,1877.5,5221.4z M1877.5,4929.8c-44.2,0-80.5-35.8-80.5-80c0-44.2,35.4-80,79.5-80h0.9
		c44.2,0,80,35.8,80,80C1957.5,4894,1921.7,4929.8,1877.5,4929.8z"/>
	<path class="st0" d="M5466.9,894.6H2537.7c-173.6,0-314.4,140.8-314.4,314.4v818.5h743.3l-115.2-367.2
		c-20-133.6,64.8-262.4,214.4-332.8v-172.8h512.9v172.8c135.2,62.4,217.6,172,217.6,294.4c0,12-1.6,24.8-3.2,37.6l-3.2,13.6
		l-112,354.4h565.7l-115.2-367.2c-20-133.6,64.8-262.4,214.4-332.8v-172.8h512.9v172.8c136,62.4,217.6,172,217.6,294.4
		c0,12-0.8,24.8-3.2,37.6l-2.4,13.6l-112,354.4h825.7v-818.5C5781.3,1035.5,5640.5,894.6,5466.9,894.6z"/>
	<path class="st0" d="M3225.8,1314.7v123.2l-54.4,19.2c-104.8,36-168.8,105.6-162.4,174.4l124.8,396h376.8l124.8-396
		c0-3.2,0.8-6.4,0.8-9.6c0-66.4-64-131.2-163.2-164.8l-54.4-18.4v-124H3225.8z"/>
	<path class="st0" d="M4502.7,1314.7v123.2l-54.4,19.2c-104,36-168.8,105.6-162.4,174.4l124.8,396h376.8l124.8-396
		c0.8-3.2,0.8-6.4,0.8-9.6c0-66.4-64-131.2-163.2-164.8l-54.4-18.4v-124H4502.7z"/>
	<polygon class="st0" points="4189.8,3135.6 4189.8,2925.1 4189.8,2496.9 3679.8,2496.9 3829.5,2684.6 3829.5,3135.6 	"/>
	<path class="st0" d="M4536.5,2691.7v-68.1h-186.6V2765H4463C4503.5,2765,4536.5,2732.2,4536.5,2691.7z"/>
	<path class="st0" d="M2691.3,2660.4v500.1H3669v-420l-321.6-403.2h1002.5v126.4h346.4v228c0,128.8-104.8,233.6-233.6,233.6h-112.8
		v235.2h1431.4v-972.9H2468.1C2604.1,2300.4,2691.3,2470.8,2691.3,2660.4z"/>
	<path class="st0" d="M2691.3,3396.5c0,218.4-115.2,411.2-288,520.1v200c0,10.4,3.2,21.6,9.6,33.6l40.8,76h216.8
		c15.8,9.6,169.8,53.9,278.4,226.4h973.7V3320.5H2691.3V3396.5z M3519.4,3718.2h160v204h-160V3718.2z"/>
	<path class="st0" d="M4082.7,4452.7h1698.6V3320.5H4082.7V4452.7z M4423.5,3718.2h160v204h-160V3718.2z"/>
</g>
</svg>
