<?xml version="1.0" encoding="utf-8"?>
<!-- Generator: Adobe Illustrator 22.0.0, SVG Export Plug-In . SVG Version: 6.00 Build 0)  -->
<svg version="1.1" id="Camada_1" xmlns="http://www.w3.org/2000/svg" xmlns:xlink="http://www.w3.org/1999/xlink" x="0px" y="0px"
	 viewBox="0 0 6442 6709.9" style="enable-background:new 0 0 6442 6709.9;" xml:space="preserve">
<style type="text/css">
	.st0{fill:#0A2463;}
</style>
<text transform="matrix(1 0 0 1 352.9219 7538.8828)" style="font-family:'Arial-BoldMT'; font-size:3.2768px;">Created by annes curnio</text>
<text transform="matrix(1 0 0 1 352.9219 7542.1592)" style="font-family:'Arial-BoldMT'; font-size:3.2768px;">from the Noun Project</text>
<g>
	<path class="st0" d="M2426.4,1598.7c-198.6-143-460.8-143-659.5,0l-667.4,484.7h1994.3L2426.4,1598.7z M1663.6,1908.6
		c0,23.8-15.9,39.7-39.7,39.7c-23.8,0-39.7-15.9-39.7-39.7c0-23.8,15.9-39.7,39.7-39.7C1647.7,1868.8,1663.6,1884.7,1663.6,1908.6
		L1663.6,1908.6z M1814.6,1717.9c0-23.8,15.9-39.7,39.7-39.7c23.8,0,39.7,15.9,39.7,39.7l0,0c0,23.8-15.9,39.7-39.7,39.7
		C1830.4,1757.6,1814.6,1741.7,1814.6,1717.9z M1965.5,1900.6c0,23.8-15.9,39.7-39.7,39.7s-39.7-15.9-39.7-39.7
		c0-23.8,15.9-39.7,39.7-39.7C1949.6,1860.9,1965.5,1876.8,1965.5,1900.6L1965.5,1900.6z M2052.9,1654.3c0-23.8,15.9-39.7,39.7-39.7
		s39.7,15.9,39.7,39.7l0,0c0,23.8-15.9,39.7-39.7,39.7S2052.9,1678.2,2052.9,1654.3z M2156.2,1980.1c0,23.8-15.9,39.7-39.7,39.7
		s-39.7-15.9-39.7-39.7c0-23.8,15.9-39.7,39.7-39.7S2156.2,1956.2,2156.2,1980.1L2156.2,1980.1z M2203.9,1805.3
		c0,23.8-15.9,39.7-39.7,39.7s-39.7-15.9-39.7-39.7c0-23.8,15.9-39.7,39.7-39.7S2203.9,1781.4,2203.9,1805.3L2203.9,1805.3z
		 M2331,1781.4c0-23.8,15.9-39.7,39.7-39.7s39.7,15.9,39.7,39.7l0,0c0,23.8-15.9,39.7-39.7,39.7S2331,1805.3,2331,1781.4z
		 M2474,1948.3c0,23.8-15.9,39.7-39.7,39.7s-39.7-15.9-39.7-39.7c0-23.8,15.9-39.7,39.7-39.7S2474,1924.5,2474,1948.3L2474,1948.3z
		 M2664.7,2003.9c-23.8,0-39.7-15.9-39.7-39.7c0-23.8,15.9-39.7,39.7-39.7c23.8,0,39.7,15.9,39.7,39.7l0,0
		C2704.4,1988,2688.5,2003.9,2664.7,2003.9z"/>
	<path class="st0" d="M2092.6,3005c-158.9,190.7-151,373.4,0,556.2C2243.6,3378.5,2251.6,3195.7,2092.6,3005z"/>
	<path class="st0" d="M3316.2,2568c39.7,0,63.6-31.8,63.6-63.6v-270.1c0-39.7-31.8-63.6-63.6-63.6c-2486.9,0-2375.7,0-2447.2,0
		c-39.7,0-63.6,31.8-63.6,63.6v270.1c0,39.7,31.8,63.6,63.6,63.6H3316.2z"/>
	<path class="st0" d="M1973.5,3942.6c-23.8-238.4-151-373.4-397.3-397.3C1600,3783.7,1727.2,3918.8,1973.5,3942.6z"/>
	<path class="st0" d="M4023.4,4173h659.5c103.3-452.9-373.4-1144.1-651.5-421.1C4071.1,3918.8,4063.1,4037.9,4023.4,4173z
		 M4388.9,3608.9c15.9-15.9,39.7-15.9,55.6,0c31.8,31.8,55.6,71.5,87.4,119.2c7.9,23.8,0,47.7-15.9,55.6c-23.8,7.9-47.7,0-55.6-15.9
		c-23.8-39.7-47.7-79.5-71.5-103.3C4373,3656.6,4373,3632.7,4388.9,3608.9z"/>
	<path class="st0" d="M1576.2,4077.7c23.8,238.4,151,373.4,397.3,397.3C1949.6,4236.6,1822.5,4101.5,1576.2,4077.7z"/>
	<path class="st0" d="M3991.6,3624.8c87.4-182.7,254.3-341.7,444.9-254.3c-71.5-254.3-357.5-564.1-548.2-500.6
		c-119.2,39.7-182.7,230.4-182.7,405.2C3832.7,3322.9,3936,3489.7,3991.6,3624.8z M3951.9,2989.1c7.9-23.8,31.8-31.8,55.6-23.8
		c31.8,15.9,63.6,31.8,95.3,55.6c15.9,15.9,23.8,39.7,7.9,55.6c-15.9,15.9-39.7,23.8-55.6,7.9c-23.8-23.8-55.6-39.7-71.5-47.7
		C3951.9,3028.9,3943.9,3005,3951.9,2989.1z"/>
	<path class="st0" d="M4531.9,3434.1c55.6,47.7,103.3,119.2,135.1,182.7c55.6-174.8,182.7-389.3,357.5-437
		c-47.7-166.9-143-325.8-270.1-341.7c-127.1-15.9-262.2,135.1-341.7,294C4476.3,3219.6,4516,3330.8,4531.9,3434.1z M4754.4,2965.3
		c15.9-15.9,39.7-15.9,55.6,0c31.8,31.8,63.6,79.5,87.4,135.1c7.9,23.8,0,47.7-23.8,55.6c-23.8,7.9-47.7,0-55.6-23.8
		c-23.8-47.7-47.7-87.4-71.5-103.3C4738.5,3005,4738.5,2981.2,4754.4,2965.3z"/>
	<path class="st0" d="M3340.1,3577.1c-55.6,111.2-95.3,254.3-95.3,381.4c0,71.5,15.9,151,39.7,214.5H3928
		c174.8-413.2-262.2-1207.7-580-611.8C3356,3561.2,3348,3569.2,3340.1,3577.1z M3689.7,3513.5c15.9-15.9,39.7-7.9,55.6,7.9
		c39.7,47.7,79.5,119.2,103.3,198.6c7.9,23.8-7.9,47.7-23.8,55.6c-23.8,7.9-47.7,0-55.6-23.8c-23.8-63.6-55.6-135.1-95.3-174.8
		C3665.8,3553.3,3665.8,3529.4,3689.7,3513.5z"/>
	<path class="st0" d="M2211.8,3942.6c238.4-23.8,373.4-151,397.3-397.3C2370.7,3569.2,2235.7,3696.3,2211.8,3942.6z"/>
	<path class="st0" d="M3014.3,4514.7h-47.7c-95.3,0-174.8-79.5-174.8-174.8c0-95.3,79.5-174.8,174.8-174.8H3205
		c-23.8-63.6-31.8-143-31.8-214.5c0-143,39.7-294,103.3-421.1l-39.7-881.9H956.4L837.3,5253.6c0,55.6,15.9,103.3,55.6,143
		c31.8,39.7,79.5,63.6,135.1,63.6h2129.4c47.7,0,87.4-39.7,95.3-87.4c-47.7-55.6-79.5-119.2-95.3-198.6L3014.3,4514.7z
		 M2068.8,2909.7c15.9-15.9,39.7-15.9,55.6,0c7.9,7.9,166.9,166.9,166.9,373.4c0,151-158.9,437-230.4,373.4
		C1846.3,3442,1838.4,3132.2,2068.8,2909.7z M1536.5,3457.9c333.7,7.9,532.3,222.5,524.4,524.4c0,23.8-15.9,39.7-39.7,39.7
		c-317.8,0-524.4-214.5-524.4-524.4C1496.7,3481.8,1512.6,3457.9,1536.5,3457.9z M2021.1,4554.4L2021.1,4554.4
		c-325.8,0-524.4-222.5-524.4-524.4c0-23.8,15.9-39.7,39.7-39.7c341.7,7.9,532.3,222.5,524.4,524.4
		C2060.9,4538.5,2045,4554.4,2021.1,4554.4z M2132.4,5134.4c0,23.8-15.9,39.7-39.7,39.7s-39.7-15.9-39.7-39.7v-460.8
		c0-23.8,15.9-39.7,39.7-39.7s39.7,15.9,39.7,39.7V5134.4z M2172.1,4554.4c-23.8,0-39.7-15.9-39.7-39.7
		c-7.9-301.9,174.8-508.5,524.4-524.4c23.8,0,39.7,15.9,39.7,39.7C2696.5,4570.3,2156.2,4562.3,2172.1,4554.4z M2553.5,3887
		c-151,151-389.3,143-381.4,143c-23.8,0-39.7-15.9-39.7-39.7c-7.9-294,182.7-524.4,524.4-524.4c23.8,0,39.7,15.9,39.7,39.7
		C2696.5,3513.5,2696.5,3736,2553.5,3887z"/>
	<path class="st0" d="M4738.5,3672.5c-7.9,39.7-15.9,47.7-15.9,55.6c47.7,135.1,71.5,294,47.7,437h707.1
		c151-373.4-119.2-921.7-365.5-921.7C4921.2,3251.3,4786.1,3497.7,4738.5,3672.5z M5199.3,3457.9c15.9-15.9,39.7-7.9,55.6,7.9
		c47.7,55.6,95.3,143,119.2,230.4c7.9,23.8-7.9,47.7-23.8,55.6c-23.8,7.9-47.7,0-55.6-23.8c-23.8-79.5-63.6-151-111.2-206.6
		C5183.4,3497.7,5183.4,3473.8,5199.3,3457.9z"/>
	<path class="st0" d="M3236.8,5158.2c39.7,174.8,190.7,294,365.5,294h1557.3c174.8,0,333.7-127.1,365.5-294l135.1-643.6H3101.7
		L3236.8,5158.2z M4039.3,5229.8c0-317.8,254.3-572.1,572.1-572.1h79.5c7.9,0,23.8,7.9,31.8,15.9c7.9,7.9,15.9,15.9,15.9,31.8v71.5
		c0,317.8-254.3,572.1-572.1,572.1h-71.5l0,0c-7.9,0-7.9,0-15.9,0c-7.9,0-7.9-7.9-15.9-7.9c0,0-7.9-7.9-7.9-15.9c0-7.9,0-7.9,0-15.9
		v-79.5H4039.3z"/>
	<path class="st0" d="M2211.8,4474.9c238.4-23.8,373.4-151,397.3-397.3C2370.7,4101.5,2235.7,4228.6,2211.8,4474.9z"/>
	<path class="st0" d="M5795.2,4252.5c-580,0-2256.5,0-2836.5,0c-47.7,0-95.3,39.7-95.3,95.3c0,55.6,39.7,95.3,95.3,95.3
		c246.3,0,2479,0,2836.5,0c47.7,0,95.3-39.7,95.3-95.3C5890.6,4292.2,5850.8,4252.5,5795.2,4252.5z"/>
	<path class="st0" d="M4380.9,4999.3c15.9,15.9,15.9,39.7,0,55.6l-206.6,206.6c262.2-15.9,468.8-230.4,468.8-492.6v-31.8h-31.8
		c-262.2,0-476.7,206.6-492.6,468.8l206.6-206.6C4341.2,4983.4,4365,4983.4,4380.9,4999.3z"/>
</g>
</svg>
