<?xml version="1.0" encoding="utf-8"?>
<!-- Generator: Adobe Illustrator 23.0.1, SVG Export Plug-In . SVG Version: 6.00 Build 0)  -->
<svg version="1.1" id="Camada_1" xmlns="http://www.w3.org/2000/svg" xmlns:xlink="http://www.w3.org/1999/xlink" x="0px" y="0px"
	 viewBox="0 0 399.8 99.6" style="enable-background:new 0 0 399.8 99.6;" xml:space="preserve">
<style type="text/css">
	.st0{fill:#FFFFFF;}
	.st1{fill-rule:evenodd;clip-rule:evenodd;fill:#FFFFFF;}
</style>
<g>
	<g>
		<path class="st0" d="M102.2,86.4V14.9h6.7v28.7c2.7-3.5,5.9-5.9,9.4-7.7c3.5-1.7,7.2-2.5,11.4-2.5c7.4,0,13.6,2.7,18.8,7.9
			c5.2,5.2,7.7,11.6,7.7,19.3c0,7.4-2.7,13.9-7.9,19s-11.4,7.9-18.8,7.9c-4.2,0-7.9-1-11.4-2.7c-3.5-1.7-6.4-4.5-9.2-8.2v9.6H102.2z
			 M128.7,81.5c3.7,0,7.2-1,10.1-2.7c3.2-1.7,5.7-4.5,7.4-7.7c1.7-3.2,2.7-6.7,2.7-10.4s-1-7.2-2.7-10.4c-2-3.2-4.5-5.9-7.4-7.7
			c-3.2-1.7-6.4-2.7-10.1-2.7c-3.7,0-7.2,1-10.4,2.7c-3.2,1.7-5.7,4.5-7.4,7.4c-1.7,3.2-2.7,6.7-2.7,10.6c0,5.9,2,10.9,5.9,15.1
			C118,80,123,81.5,128.7,81.5z"/>
		<path class="st0" d="M192.5,33.5c7.9,0,14.6,3,19.8,8.7c4.7,5.2,7.2,11.4,7.2,18.6c0,7.2-2.5,13.6-7.4,18.8
			c-4.9,5.4-11.4,8.2-19.3,8.2c-7.9,0-14.3-2.7-19.5-8.2c-4.9-5.4-7.4-11.6-7.4-18.8c0-7.2,2.5-13.4,7.2-18.6
			C177.9,36.5,184.6,33.5,192.5,33.5z M192.5,39.9c-5.4,0-10.4,2-14.3,6.2c-4,4-5.9,8.9-5.9,14.8c0,3.7,1,7.2,2.7,10.4
			c1.7,3.2,4.2,5.7,7.4,7.4c3,1.7,6.4,2.7,10.1,2.7c3.7,0,7.2-1,10.1-2.7c3-1.7,5.4-4.2,7.4-7.4c1.7-3.2,2.7-6.7,2.7-10.4
			c0-5.7-2-10.6-5.9-14.8C202.6,42.1,197.9,39.9,192.5,39.9z"/>
		<path class="st0" d="M256.1,33.5c7.9,0,14.6,3,19.8,8.7c4.7,5.2,7.2,11.4,7.2,18.6c0,7.2-2.5,13.6-7.4,18.8
			c-4.9,5.4-11.4,8.2-19.3,8.2c-7.9,0-14.3-2.7-19.5-8.2c-4.9-5.4-7.4-11.6-7.4-18.8c0-7.2,2.5-13.4,7.2-18.6
			C241.5,36.5,248.2,33.5,256.1,33.5z M256.1,39.9c-5.4,0-10.4,2-14.3,6.2c-4,4-5.9,8.9-5.9,14.8c0,3.7,1,7.2,2.7,10.4
			c1.7,3.2,4.2,5.7,7.4,7.4c3,1.7,6.4,2.7,10.1,2.7c3.7,0,7.2-1,10.1-2.7c3-1.7,5.4-4.2,7.4-7.4c1.7-3.2,2.7-6.7,2.7-10.4
			c0-5.7-2-10.6-5.9-14.8C266.5,42.1,261.8,39.9,256.1,39.9z"/>
		<path class="st0" d="M295.4,14.9h6.7v40.8l24-20.8h9.6l-28.5,24.7l30.2,26.7h-9.4l-26-23.3v23.3h-6.7
			C295.4,86.4,295.4,14.9,295.4,14.9z"/>
		<path class="st0" d="M354.3,13.7c1.5,0,2.7,0.5,4,1.7c1,1,1.5,2.5,1.5,4s-0.5,2.7-1.5,4c-1,1-2.5,1.7-4,1.7
			c-1.5,0-2.7-0.5-3.7-1.7c-1-1-1.5-2.5-1.5-4s0.5-2.7,1.5-4C351.3,14.2,352.8,13.7,354.3,13.7z"/>
		<g>
			<rect x="350.8" y="35" class="st0" width="6.7" height="51.7"/>
		</g>
		<g>
			<polygon class="st0" points="377,15.7 383.7,15.7 383.7,35 394.4,35 394.4,40.7 383.7,40.7 383.7,86.4 377,86.4 377,40.7 
				368.1,40.7 368.1,35 377.3,35 377.3,15.7 			"/>
		</g>
	</g>
	<g>
		<g>
			<g>
				<path class="st1" d="M48.3,3.5L89.1,27v47.3L48.3,98.1L7.4,74.3V27L48.3,3.5z M41.8,44.1c0,10.1,1,20.8,1,31.9
					c0,4.7-4.9,4.7-4.9,0c0-10.9,1-21.8,1-31.9c-5.4-5.2-5.7-8.7-2-22v15.6c0,1.5,2.2,1.5,2.2,0l1-15.6l0.7,15.6
					c0,1.5,2.2,1.5,2.2,0V22.1C47,34.7,47,39.2,41.8,44.1z M54.9,22.8c8.2,0,9.2,17.6,1.2,19.8c0,10.1,1,21.5,1,32.4
					c0,4.7-4.9,4.7-4.9,0c0-10.9,1-22.3,1-32.4C45.8,40.4,47,22.8,54.9,22.8z"/>
			</g>
		</g>
	</g>
</g>
</svg>
