<?xml version="1.0" encoding="utf-8"?>
<!-- Generator: Adobe Illustrator 23.0.1, SVG Export Plug-In . SVG Version: 6.00 Build 0)  -->
<svg version="1.1" id="Camada_1" xmlns="http://www.w3.org/2000/svg" xmlns:xlink="http://www.w3.org/1999/xlink" x="0px" y="0px"
	 viewBox="0 0 160.7 40.7" style="enable-background:new 0 0 160.7 40.7;" xml:space="preserve">
<style type="text/css">
	.st0{fill:#B91C3B;}
	.st1{fill-rule:evenodd;clip-rule:evenodd;fill:#B91C3B;}
</style>
<title>catering</title>
<g>
	<path d="M40.3,34.9V6H43v11.6c1.1-1.4,2.4-2.4,3.8-3.1c1.4-0.7,2.9-1,4.6-1c3,0,5.5,1.1,7.6,3.2c2.1,2.1,3.1,4.7,3.1,7.8
		c0,3-1.1,5.6-3.2,7.7c-2.1,2.1-4.6,3.2-7.6,3.2c-1.7,0-3.2-0.4-4.6-1.1c-1.4-0.7-2.6-1.8-3.7-3.3v3.9H40.3z M51,32.9
		c1.5,0,2.9-0.4,4.1-1.1c1.3-0.7,2.3-1.8,3-3.1c0.7-1.3,1.1-2.7,1.1-4.2s-0.4-2.9-1.1-4.2c-0.8-1.3-1.8-2.4-3-3.1
		c-1.3-0.7-2.6-1.1-4.1-1.1s-2.9,0.4-4.2,1.1s-2.3,1.8-3,3c-0.7,1.3-1.1,2.7-1.1,4.3c0,2.4,0.8,4.4,2.4,6.1S48.7,32.9,51,32.9z"/>
	<path d="M76.8,13.5c3.2,0,5.9,1.2,8,3.5c1.9,2.1,2.9,4.6,2.9,7.5s-1,5.5-3,7.6c-2,2.2-4.6,3.3-7.8,3.3c-3.2,0-5.8-1.1-7.9-3.3
		c-2-2.2-3-4.7-3-7.6c0-2.9,1-5.4,2.9-7.5C70.9,14.7,73.6,13.5,76.8,13.5z M76.8,16.1c-2.2,0-4.2,0.8-5.8,2.5
		c-1.6,1.6-2.4,3.6-2.4,6c0,1.5,0.4,2.9,1.1,4.2c0.7,1.3,1.7,2.3,3,3c1.2,0.7,2.6,1.1,4.1,1.1s2.9-0.4,4.1-1.1s2.2-1.7,3-3
		c0.7-1.3,1.1-2.7,1.1-4.2c0-2.3-0.8-4.3-2.4-6C80.9,17,79,16.1,76.8,16.1z"/>
	<path d="M102.5,13.5c3.2,0,5.9,1.2,8,3.5c1.9,2.1,2.9,4.6,2.9,7.5s-1,5.5-3,7.6c-2,2.2-4.6,3.3-7.8,3.3c-3.2,0-5.8-1.1-7.9-3.3
		c-2-2.2-3-4.7-3-7.6c0-2.9,1-5.4,2.9-7.5C96.6,14.7,99.3,13.5,102.5,13.5z M102.5,16.1c-2.2,0-4.2,0.8-5.8,2.5
		c-1.6,1.6-2.4,3.6-2.4,6c0,1.5,0.4,2.9,1.1,4.2c0.7,1.3,1.7,2.3,3,3c1.2,0.7,2.6,1.1,4.1,1.1s2.9-0.4,4.1-1.1s2.2-1.7,3-3
		c0.7-1.3,1.1-2.7,1.1-4.2c0-2.3-0.8-4.3-2.4-6C106.7,17,104.8,16.1,102.5,16.1z"/>
	<path d="M118.4,6h2.7v16.5l9.7-8.4h3.9l-11.5,10l12.2,10.8h-3.8l-10.5-9.4v9.4h-2.7C118.4,34.9,118.4,6,118.4,6z"/>
	<path class="st0" d="M142.2,5.5c0.6,0,1.1,0.2,1.6,0.7c0.4,0.4,0.6,1,0.6,1.6s-0.2,1.1-0.6,1.6c-0.4,0.4-1,0.7-1.6,0.7
		s-1.1-0.2-1.5-0.7c-0.4-0.4-0.6-1-0.6-1.6s0.2-1.1,0.6-1.6C141,5.7,141.6,5.5,142.2,5.5z"/>
	<g>
		<rect x="140.8" y="14.1" width="2.7" height="20.9"/>
	</g>
	<g>
		<polygon points="151.4,6.3 154.1,6.3 154.1,14.1 158.4,14.1 158.4,16.4 154.1,16.4 154.1,34.9 151.4,34.9 151.4,16.4 147.8,16.4 
			147.8,14.1 151.5,14.1 151.5,6.3 		"/>
	</g>
</g>
<g>
	<g>
		<g>
			<path class="st1" d="M18.5,1.4L35,10.9V30l-16.5,9.6L2,30V10.9L18.5,1.4z M15.9,17.8c0,4.1,0.4,8.4,0.4,12.9c0,1.9-2,1.9-2,0
				c0-4.4,0.4-8.8,0.4-12.9c-2.2-2.1-2.3-3.5-0.8-8.9v6.3c0,0.6,0.9,0.6,0.9,0l0.4-6.3l0.3,6.3c0,0.6,0.9,0.6,0.9,0V8.9
				C18,14,18,15.8,15.9,17.8z M21.2,9.2c3.3,0,3.7,7.1,0.5,8c0,4.1,0.4,8.7,0.4,13.1c0,1.9-2,1.9-2,0c0-4.4,0.4-9,0.4-13.1
				C17.5,16.3,18,9.2,21.2,9.2z"/>
		</g>
	</g>
</g>
</svg>
