<?xml version="1.0" encoding="utf-8"?>
<!-- Generator: Adobe Illustrator 23.0.1, SVG Export Plug-In . SVG Version: 6.00 Build 0)  -->
<svg version="1.1" id="Camada_1" xmlns="http://www.w3.org/2000/svg" xmlns:xlink="http://www.w3.org/1999/xlink" x="0px" y="0px"
	 viewBox="0 0 6442 6709.9" style="enable-background:new 0 0 6442 6709.9;" xml:space="preserve">
<style type="text/css">
	.st0{fill:#0A2463;}
</style>
<text transform="matrix(1 0 0 1 352.922 7538.8828)" style="font-family:'Arial-BoldMT'; font-size:3.2768px;">Created by annes curnio</text>
<text transform="matrix(1 0 0 1 352.922 7542.1592)" style="font-family:'Arial-BoldMT'; font-size:3.2768px;">from the Noun Project</text>
<g>
	<path class="st0" d="M2523.9,3877.8h174.3v-435.7c-48.1,0-87.1-39-87.1-87.1c0-48.1,39-87.1,87.1-87.1v-87.1h-174.3V3877.8z"/>
	<path class="st0" d="M4876.6,5620.5h-87.1V1002.2c0-48.1-39-87.1-87.1-87.1H1739.7c-48.1,0-87.1,39-87.1,87.1v4618.3h-87.1
		c-48.1,0-87.1,39-87.1,87.1s39,87.1,87.1,87.1h3311.3c48.1,0,87.1-39,87.1-87.1S4924.8,5620.5,4876.6,5620.5z M3046.7,3267.8
		c48.1,0,87.1,39,87.1,87.1c0,48.1-39,87.1-87.1,87.1h-174.3v522.8c0,48.1-39,87.1-87.1,87.1h-348.6c-48.1,0-87.1-39-87.1-87.1
		v-871.4c0-48.1,39-87.1,87.1-87.1h348.6c48.1,0,87.1,39,87.1,87.1v174.3H3046.7z M3046.7,1699.3c0-48.1,39-87.1,87.1-87.1h174.3
		c48.1,0,87.1,39,87.1,87.1c0,48.1-39,87.1-87.1,87.1h-174.3C3085.7,1786.4,3046.7,1747.4,3046.7,1699.3z M4266.7,5620.5V1437.9
		H2175.3v4182.6h-174.3V1350.7c0-48.1,39-87.1,87.1-87.1h2265.6c48.1,0,87.1,39,87.1,87.1v4269.8H4266.7z"/>
</g>
</svg>
