<?xml version="1.0" encoding="utf-8"?>
<!-- Generator: Adobe Illustrator 23.0.1, SVG Export Plug-In . SVG Version: 6.00 Build 0)  -->
<svg version="1.1" id="Camada_1" xmlns="http://www.w3.org/2000/svg" xmlns:xlink="http://www.w3.org/1999/xlink" x="0px" y="0px"
	 viewBox="0 0 6442 6709.9" style="enable-background:new 0 0 6442 6709.9;" xml:space="preserve">
<style type="text/css">
	.st0{fill:#0A2463;}
</style>
<text transform="matrix(1 0 0 1 352.922 7538.8828)" style="font-family:'Arial-BoldMT'; font-size:3.2768px;">Created by annes curnio</text>
<text transform="matrix(1 0 0 1 352.922 7542.1592)" style="font-family:'Arial-BoldMT'; font-size:3.2768px;">from the Noun Project</text>
<g>
	<circle class="st0" cx="4728.4" cy="5481.8" r="327.2"/>
	<circle class="st0" cx="2601.5" cy="5481.8" r="327.2"/>
	<path class="st0" d="M3261.6,1958.5c-130-130-303.4-216.4-496.5-235.5v-249.6h245.4v-163.6h-654.4v163.6h245.4V1723
		c-413.2,41.1-736.2,390-736.2,813.9h1636.1C3501.3,2311.1,3409.7,2106.6,3261.6,1958.5z"/>
	<path class="st0" d="M1106.2,2945.9h234.4l197.5,197.5v1684c0,180.8,146.4,327.2,327.2,327.2h736.2h2126.9h899.8V3027.7h-245.4
		V1866.1c0-91.6-45.8-178.3-122.7-229s-122.7-137.4-122.7-229V900.8h-327.2V1408c0,91.6-45.8,178.3-122.7,229
		c-76.9,50.7-122.7,137.4-122.7,229v1161.6h-327.2v-81.8c0-45.2-36.6-81.8-81.8-81.8h-81.8v-441.7l327.2-458.1h-818l327.2,458.1
		v441.7h-81.8c-45.2,0-81.8,36.6-81.8,81.8v81.8h-409c90,0,171.8-36.8,231.5-95.7c58.9-59.7,95.7-141.5,95.7-231.5H1701.7
		c0,180.8,146.4,327.2,327.2,327.2h-375.1l-245.4-245.4h-302.1c-28.5-48.6-80.7-81.8-140.8-81.8c-90,0-163.6,73.6-163.6,163.6
		c0,90,73.6,163.6,163.6,163.6C1025.6,3027.7,1077.7,2994.5,1106.2,2945.9z M4810.2,3027.7H5301v1063.4l-245.4-81.8l-245.4,81.8
		V3027.7z M2110.7,3273.1h163.6v163.6h-163.6V3273.1z M1783.5,3273.1h163.6v163.6h-163.6V3273.1z M1783.5,3600.3h163.6v163.6h-163.6
		V3600.3z"/>
</g>
</svg>
