<svg xmlns="http://www.w3.org/2000/svg" xmlns:xlink="http://www.w3.org/1999/xlink" version="1.1" x="0px" y="0px" viewBox="0 0 67 83.75" enable-background="new 0 0 67 67" xml:space="preserve"><g><path d="M8.4498005,26.3000507v7.7199688c0,3.1300049,2.539978,5.6699829,5.6699829,5.6699829h5.0800171   c3.1300049,0,5.6799927-2.539978,5.6799927-5.6699829v-9.2000103c0-3.1300049-2.5499878-5.6699829-5.6799927-5.6699829h-2.5300293   c-4-0.0599976-5.7099609-1.0800171-6.4299927-1.9299927c-0.75-0.8800049-0.6300049-1.7700205-0.6300049-1.79004   c0.0900269-0.4599609-0.1699829-0.9199829-0.5999756-1.0999756c-0.4400024-0.1799927-0.9400024-0.0299683-1.210022,0.3599854   c-1.9400024,2.8500376-2.6799927,5.4000254-2.2099609,7.5900278C5.9397907,23.8800068,6.8998127,25.2300434,8.4498005,26.3000507z"/><path d="M19.1998005,41.6900024h-5.0800171c-0.7199707,0-1.4099731-0.0999756-2.0700073-0.289978v1.6199951   c0,0.5-0.1400146,0.960022-0.3599854,1.3699951h9.9500122c-0.2200317-0.4099731-0.3600464-0.8699951-0.3600464-1.3699951   v-1.6199951C20.6197834,41.5900269,19.9197712,41.6900024,19.1998005,41.6900024z"/><path d="M29.0798054,49.9100342c-0.3363037-1.6043091-1.4411011-2.8842773-2.8758545-3.5160522H7.125948   c-1.4298706,0.6312256-2.5369873,1.9090576-2.8661499,3.5060425L1.5198076,63.0500488   c-0.0599976,0.289978,0.0199585,0.5999756,0.2099609,0.8299561C1.919771,64.1199951,2.1998003,64.25,2.499788,64.25h3.6845706   l2.336853-8.3980103c0.1484375-0.5322266,0.6992188-0.8388672,1.2314453-0.6953125   c0.5322266,0.1484375,0.8432617,0.7001953,0.6953125,1.2324219L8.2605915,64.25h16.7017822l-2.0817871-7.8706665   c-0.1411133-0.5341797,0.1772461-1.0810547,0.7109375-1.2226563c0.5356445-0.1435547,1.0805664,0.1767578,1.2226563,0.7109375   L27.0313435,64.25h3.7884521c0.0100098,0,0.0200195,0,0.0200195,0c0.5599976,0,1-0.4400024,1-1   c0-0.1399536-0.0300293-0.2699585-0.0800171-0.3899536L29.0798054,49.9100342z M16.7077351,60.4730835   c-0.5522461,0-1.0058594-0.4472656-1.0058594-1s0.4418945-1,0.9941406-1h0.0117188c0.5522461,0,1,0.4472656,1,1   S17.2599812,60.4730835,16.7077351,60.4730835z M16.7077351,56.8285522c-0.5522461,0-1.0058594-0.4472656-1.0058594-1   s0.4418945-1,0.9941406-1h0.0117188c0.5522461,0,1,0.4472656,1,1S17.2599812,56.8285522,16.7077351,56.8285522z    M16.7077351,53.184021c-0.5522461,0-1.0058594-0.4472656-1.0058594-1s0.4418945-1,0.9941406-1h0.0117188   c0.5522461,0,1,0.4472656,1,1S17.2599812,53.184021,16.7077351,53.184021z"/><path d="M61.5697937,2.750001H24.9598103c-2.1700439,0-3.9300537,1.7600098-3.9300537,3.9299927v10.2300425h9.2900391   l-1.4400024-4.5900278c-0.25-1.6699829,0.8099976-3.2799683,2.6799927-4.1599731V6.000001h6.4099712v2.1600342   c1.6900024,0.7799683,2.7200317,2.1499634,2.7200317,3.6799927c0,0.1500244-0.0200195,0.3099976-0.039978,0.4699707   l-0.0400391,0.1700439l-1.3999634,4.4299936h7.0699463l-1.4399414-4.5900278   c-0.25-1.6699829,0.8099976-3.2799683,2.6799927-4.1599731V6.000001h6.4099731v2.1600342   c1.7000122,0.7799683,2.7200317,2.1499634,2.7200317,3.6799927c0,0.1500244-0.0100098,0.3099976-0.0400391,0.4699707   l-0.0299683,0.1700439l-1.4000244,4.4299936h10.3200073V6.6799936C65.4997864,4.5100107,63.7397766,2.750001,61.5697937,2.750001z"/><path d="M33.5597839,8.000001V9.54004l-0.6799927,0.2399902c-1.3099957,0.4500122-2.1099834,1.3200073-2.0300274,2.1799927   l1.5599957,4.9500132h4.710022l1.5599976-4.9500132c0-0.039978,0.0100098-0.0800171,0.0100098-0.1199951   c0-0.8300171-0.7999878-1.6400146-2.039978-2.0599976l-0.6800537-0.2299805V8.000001H33.5597839z"/><path d="M49.5198059,8.000001V9.54004l-0.6799927,0.2399902c-1.3000488,0.4500122-2.1100464,1.3200073-2.0300293,2.1799927   l1.5599976,4.9500132h4.710022l1.5599976-4.9500132c0.0100098-0.039978,0.0100098-0.0800171,0.0100098-0.1199951   c0-0.8300171-0.8000488-1.6400146-2.0400391-2.0599976l-0.6799927-0.2299805V8.000001H49.5198059z"/><polygon points="45.6086121,30.7592182 45.6086121,28.1273823 45.6086121,22.7758198 39.2336121,22.7758198 41.1047058,25.1215229    41.1047058,30.7592182  "/><path d="M49.9411316,25.2103901v-0.8515625h-2.3325195v1.7685547h1.4150391   C49.5295105,26.1273823,49.9411316,25.7162495,49.9411316,25.2103901z"/><path d="M26.8797932,24.8200092v6.25H39.099762v-5.25l-4.0199585-5.039978h12.5299683v1.5800171h4.3300171v2.8499756   c0,1.6099854-1.3099976,2.9199829-2.9199829,2.9199829h-1.4100342v2.9400024h17.8900146V18.9100361H24.0898151   C25.7897663,20.3200092,26.8797932,22.4500141,26.8797932,24.8200092z"/><path d="M26.8797932,34.0200195c0,2.7299805-1.4400024,5.1400146-3.6000366,6.5v2.5   c0,0.1300049,0.0400391,0.2700195,0.1200562,0.4199829l0.5099487,0.9500122h2.710022   c0.1973267,0.119812,2.1228638,0.6734009,3.4799805,2.8300171h12.170042V33.0700073H26.8797932V34.0200195z M37.2297668,38.0400391   h2v2.5499878h-2V38.0400391z"/><path d="M44.2698059,47.2200317h21.2299805V33.0700073H44.2698059V47.2200317z M48.5297546,38.0400391h2v2.5499878h-2V38.0400391z"/></g><text x="0" y="82" fill="#000000" font-size="5px" font-weight="bold" font-family="'Helvetica Neue', Helvetica, Arial-Unicode, Arial, Sans-serif">Created by Vectors Point</text><text x="0" y="87" fill="#000000" font-size="5px" font-weight="bold" font-family="'Helvetica Neue', Helvetica, Arial-Unicode, Arial, Sans-serif">from the Noun Project</text></svg>