<?xml version="1.0" encoding="utf-8"?>
<!-- Generator: Adobe Illustrator 23.0.1, SVG Export Plug-In . SVG Version: 6.00 Build 0)  -->
<svg version="1.1" id="Camada_1" xmlns="http://www.w3.org/2000/svg" xmlns:xlink="http://www.w3.org/1999/xlink" x="0px" y="0px"
	 viewBox="0 0 6442 6709.9" style="enable-background:new 0 0 6442 6709.9;" xml:space="preserve">
<style type="text/css">
	.st0{fill-rule:evenodd;clip-rule:evenodd;fill:#0A2463;}
</style>
<text transform="matrix(1 0 0 1 352.922 7538.8828)" style="font-family:'Arial-BoldMT'; font-size:3.2768px;">Created by annes curnio</text>
<text transform="matrix(1 0 0 1 352.922 7542.1592)" style="font-family:'Arial-BoldMT'; font-size:3.2768px;">from the Noun Project</text>
<g>
	<path class="st0" d="M4294.6,1376.8h-261.9v409.7c0,167.2-135.4,302.7-302.7,302.7c-167.2,0-302.7-135.6-302.7-302.7v-409.7H2249.5
		v409.7c0,167.2-135.4,302.7-302.6,302.7s-302.7-135.6-302.7-302.7v-409.7h-261.9c-325.3,0-589,263.7-589,589v3059.3
		c0,325.3,263.7,588.9,589,588.9h2217.8c-224.4-239.8-362-561.8-362-916.1c0-740.9,600.6-1341.6,1341.4-1341.6
		c104.6,0,206.2,12.4,303.9,35V1965.6C4883.6,1640.5,4620,1376.8,4294.6,1376.8z M2511.3,4628.2H1251.7
		c-76.8,0-139.1-62.3-139.1-139.1c0-76.9,62.2-139.1,139.1-139.1h1259.6c76.8,0,139.1,62.3,139.1,139.1
		C2650.4,4565.9,2588.1,4628.2,2511.3,4628.2z M2511.3,3732.5H1251.7c-76.8,0-139.1-62.3-139.1-139.1s62.2-139.1,139.1-139.1h1259.6
		c76.8,0,139.1,62.3,139.1,139.1S2588.1,3732.5,2511.3,3732.5z M4425.5,2775.4H1251.7c-76.8,0-139.1-62.1-139.1-139.1
		c0-76.8,62.2-139,139.1-139h3173.8c76.8,0,139.1,62.1,139.1,139C4564.6,2713.2,4502.3,2775.4,4425.5,2775.4z"/>
	<path class="st0" d="M2127,1728.4c0,99.4-80.6,180-180,180l0,0c-99.3,0-179.9-80.6-179.9-180v-605.2c0-99.4,80.6-179.9,179.9-179.9
		l0,0c99.4,0,180,80.6,180,179.9V1728.4z"/>
	<path class="st0" d="M3910.1,1728.4c0,99.4-80.6,180-179.9,180l0,0c-99.4,0-179.9-80.6-179.9-180v-605.2
		c0-99.4,80.5-179.9,179.9-179.9l0,0c99.4,0,179.9,80.6,179.9,179.9V1728.4z"/>
	<path class="st0" d="M4579.6,3628.8c-590.3,0-1068.8,478.6-1068.8,1069c0,590.3,478.5,1068.8,1068.8,1068.8
		S5648.5,5288,5648.5,4697.8C5648.6,4107.5,5170,3628.8,4579.6,3628.8z M4989,4903.5h-492c-16.3,0-31.9-3.3-46-9
		c-0.6-0.3-1.3-0.3-1.9-0.6c-6.3-2.7-12.2-6.1-17.9-9.7c-1-0.6-2-1-3-1.6c-4-2.7-7.7-6.2-11.4-9.5c-2.2-1.9-4.7-3.4-6.8-5.5
		c-2.1-2.1-3.7-4.7-5.6-6.8c-3.2-3.7-6.7-7.3-9.4-11.4c-0.6-0.9-1-1.9-1.6-2.9c-3.7-5.7-7.1-11.7-9.7-18c-0.3-0.6-0.4-1.3-0.6-1.8
		c-5.7-14.3-9-29.7-9-46v-492c0-67.9,55-123,123-123s123,55.1,123,123v369h369c67.9,0,123,55,123,123
		C5112,4848.4,5056.9,4903.5,4989,4903.5z"/>
</g>
</svg>
