<?xml version="1.0" encoding="utf-8"?>
<!-- Generator: Adobe Illustrator 23.0.1, SVG Export Plug-In . SVG Version: 6.00 Build 0)  -->
<svg version="1.1" id="Camada_1" xmlns="http://www.w3.org/2000/svg" xmlns:xlink="http://www.w3.org/1999/xlink" x="0px" y="0px"
	 viewBox="0 0 178.7 117.5" style="enable-background:new 0 0 178.7 117.5;" xml:space="preserve">
<style type="text/css">
	.st0{fill:#FFFFFF;}
	.st1{fill-rule:evenodd;clip-rule:evenodd;fill:#FFFFFF;}
</style>
<title>catering</title>
<g>
	<path class="st0" d="M44.5,71V42.1h2.7v11.6c1.1-1.4,2.4-2.4,3.8-3.1c1.4-0.7,2.9-1,4.6-1c3,0,5.5,1.1,7.6,3.2
		c2.1,2.1,3.1,4.7,3.1,7.8c0,3-1.1,5.6-3.2,7.7c-2.1,2.1-4.6,3.2-7.6,3.2c-1.7,0-3.2-0.4-4.6-1.1c-1.4-0.7-2.6-1.8-3.7-3.3V71H44.5z
		 M55.2,69c1.5,0,2.9-0.4,4.1-1.1c1.3-0.7,2.3-1.8,3-3.1c0.7-1.3,1.1-2.7,1.1-4.2s-0.4-2.9-1.1-4.2c-0.8-1.3-1.8-2.4-3-3.1
		c-1.3-0.7-2.6-1.1-4.1-1.1s-2.9,0.4-4.2,1.1s-2.3,1.8-3,3c-0.7,1.3-1.1,2.7-1.1,4.3c0,2.4,0.8,4.4,2.4,6.1S52.9,69,55.2,69z"/>
	<path class="st0" d="M81,49.6c3.2,0,5.9,1.2,8,3.5c1.9,2.1,2.9,4.6,2.9,7.5s-1,5.5-3,7.6c-2,2.2-4.6,3.3-7.8,3.3
		c-3.2,0-5.8-1.1-7.9-3.3c-2-2.2-3-4.7-3-7.6c0-2.9,1-5.4,2.9-7.5C75.1,50.8,77.8,49.6,81,49.6z M81,52.2c-2.2,0-4.2,0.8-5.8,2.5
		c-1.6,1.6-2.4,3.6-2.4,6c0,1.5,0.4,2.9,1.1,4.2c0.7,1.3,1.7,2.3,3,3c1.2,0.7,2.6,1.1,4.1,1.1s2.9-0.4,4.1-1.1s2.2-1.7,3-3
		c0.7-1.3,1.1-2.7,1.1-4.2c0-2.3-0.8-4.3-2.4-6C85.1,53.1,83.2,52.2,81,52.2z"/>
	<path class="st0" d="M106.7,49.6c3.2,0,5.9,1.2,8,3.5c1.9,2.1,2.9,4.6,2.9,7.5s-1,5.5-3,7.6c-2,2.2-4.6,3.3-7.8,3.3
		c-3.2,0-5.8-1.1-7.9-3.3c-2-2.2-3-4.7-3-7.6c0-2.9,1-5.4,2.9-7.5C100.8,50.8,103.5,49.6,106.7,49.6z M106.7,52.2
		c-2.2,0-4.2,0.8-5.8,2.5c-1.6,1.6-2.4,3.6-2.4,6c0,1.5,0.4,2.9,1.1,4.2c0.7,1.3,1.7,2.3,3,3c1.2,0.7,2.6,1.1,4.1,1.1
		s2.9-0.4,4.1-1.1s2.2-1.7,3-3c0.7-1.3,1.1-2.7,1.1-4.2c0-2.3-0.8-4.3-2.4-6C110.9,53.1,109,52.2,106.7,52.2z"/>
	<path class="st0" d="M122.6,42.1h2.7v16.5l9.7-8.4h3.9l-11.5,10L139.6,71h-3.8l-10.5-9.4V71h-2.7C122.6,71,122.6,42.1,122.6,42.1z"
		/>
	<path class="st0" d="M146.4,41.6c0.6,0,1.1,0.2,1.6,0.7c0.4,0.4,0.6,1,0.6,1.6s-0.2,1.1-0.6,1.6c-0.4,0.4-1,0.7-1.6,0.7
		s-1.1-0.2-1.5-0.7c-0.4-0.4-0.6-1-0.6-1.6s0.2-1.1,0.6-1.6C145.2,41.8,145.8,41.6,146.4,41.6z"/>
	<g>
		<rect x="145" y="50.2" class="st0" width="2.7" height="20.9"/>
	</g>
	<g>
		<polygon class="st0" points="155.6,42.4 158.3,42.4 158.3,50.2 162.6,50.2 162.6,52.5 158.3,52.5 158.3,71 155.6,71 155.6,52.5 
			152,52.5 152,50.2 155.7,50.2 155.7,42.4 		"/>
	</g>
</g>
<g>
	<g>
		<g>
			<path class="st1" d="M22.7,37.5L39.2,47v19.1l-16.5,9.6L6.2,66.1V47L22.7,37.5z M20.1,53.9c0,4.1,0.4,8.4,0.4,12.9
				c0,1.9-2,1.9-2,0c0-4.4,0.4-8.8,0.4-12.9c-2.2-2.1-2.3-3.5-0.8-8.9v6.3c0,0.6,0.9,0.6,0.9,0l0.4-6.3l0.3,6.3c0,0.6,0.9,0.6,0.9,0
				V45C22.2,50.1,22.2,51.9,20.1,53.9z M25.4,45.3c3.3,0,3.7,7.1,0.5,8c0,4.1,0.4,8.7,0.4,13.1c0,1.9-2,1.9-2,0
				c0-4.4,0.4-9,0.4-13.1C21.7,52.4,22.2,45.3,25.4,45.3z"/>
		</g>
	</g>
</g>
</svg>
