<?xml version="1.0" encoding="utf-8"?>
<!-- Generator: Adobe Illustrator 23.0.1, SVG Export Plug-In . SVG Version: 6.00 Build 0)  -->
<svg version="1.1" xmlns="http://www.w3.org/2000/svg" xmlns:xlink="http://www.w3.org/1999/xlink" x="0px" y="0px"
	 viewBox="0 0 104 104" style="enable-background:new 0 0 104 104;" xml:space="preserve">
<style type="text/css">
	.st0{fill:#B91C3B;}
	.st1{fill:#FFFFFF;}
</style>
<g id="Camada_2">
</g>
<g id="Camada_1">
	<rect class="st0" width="104" height="104"/>
	<g>
		<path class="st1" d="M95.1,84.6c-3.5-9.3-9.2-12.2-14.2-13.4c-5.3-5.8-4.1-28.5-4.1-28.5c0.1-0.4,0.1-0.8,0.2-1.2c0,0,0,0,0,0
			c0,0,7.3-24.7-12.1-33.5c0,0-3.5-0.8-6.2-0.2c-1.8-0.4-3.6-0.7-5.3-0.7c-0.5,0-1,0-1.4,0.1c-0.5,0-0.9-0.1-1.4-0.1
			c-2.1,0-4.4,0.4-6.8,1.1l-0.1,0l-0.1,0c-6.3,2.2-17,10.6-15.3,27.3c0,0.1-0.1,0.1-0.1,0.2c-1.7,2.2-1.5,5.2-1,7.7
			c0.1,5.2,0.4,19.9-1,27.2c-0.5,0.1-1,0.2-1.4,0.3c-5.4,1-12,3.4-16,13.7c-0.7,1.8-0.4,3.7,0.7,5.2c4,5.8,25.3,7.1,42.5,7.1
			s38.4-1.2,42.5-7.1C95.5,88.3,95.8,86.4,95.1,84.6z M31.7,38.2c1.1,0.1,2.1,0.1,3.1,0l0,0l1.3,6.9l1.4-7.1
			c1.4-0.2,2.9-0.4,4.3-0.8c5.9-1.5,11.2-4.3,15.1-7c2.9-2,5.1-3.9,6.4-5.1c0.8,2.1,2.9,7.3,6.4,11.4v4.9l1.1-3.7
			c0,0,0.1,0.1,0.1,0.1c0,0.1,0,0.1,0,0.2c0,0,0.1,0,0.2-0.1c0.5,0.5,1.1,1,1.7,1.4c0.1,0.8,0,1.9-0.4,3.6c-1.3,5.6-3.5,6-4.1,6
			c-0.1,0-0.1,0-0.1,0s-0.3,5.3-5.1,11c0,0,0,0.1,0,0.1c-3.8,3.8-7.6,5.7-11.5,5.6c-4.8-0.2-8.6-3.5-10.5-5.5c0,0,0-0.1,0-0.1
			C36,54.3,35.7,49,35.7,49s0,0-0.1,0c-0.3,0-1.1-0.1-2-1.2l-1-1.6c-0.4-0.8-0.8-1.8-1.1-3.2C30.8,39.9,31.1,38.7,31.7,38.2z
			 M52.1,88.2l-2.7-2.7C29.3,85.4,17.3,79,17.3,79c2.7-2.6,5.7-3.4,8.3-3.9c4.2-0.7,14.3-3.3,15.2-5.7c0.3-0.7,0.4-2.1,0.4-3.6
			c2.6,1.9,6,3.7,10.1,3.9c0.2,0,0.5,0,0.7,0c3.7,0,7.3-1.4,10.8-4c0,1.5,0.1,2.9,0.4,3.7c0.9,2.4,11,4.9,15.2,5.7
			c2.6,0.5,5.6,1.3,8.3,3.9c-11.9,4.2-22.5,5.9-31.7,6.4L52.1,88.2z"/>
	</g>
</g>
</svg>
