<?xml version="1.0" encoding="utf-8"?>
<!-- Generator: Adobe Illustrator 23.0.1, SVG Export Plug-In . SVG Version: 6.00 Build 0)  -->
<svg version="1.1" xmlns="http://www.w3.org/2000/svg" xmlns:xlink="http://www.w3.org/1999/xlink" x="0px" y="0px"
	 viewBox="0 0 104 104" style="enable-background:new 0 0 104 104;" xml:space="preserve">
<style type="text/css">
	.st0{fill:#0A2463;}
	.st1{fill:#FFFFFF;}
</style>
<g id="Camada_2">
</g>
<g id="Camada_1">
	<rect class="st0" width="104" height="104"/>
	<g>
		<path class="st1" d="M100,88.3C96,77.9,89.7,74.7,84.1,73.4c-5.9-6.4-4.5-31.7-4.5-31.7c0.1-0.4,0.1-0.9,0.2-1.3c0,0,0,0,0,0
			c0,0,8.1-27.5-13.5-37.3c0,0-3.9-0.9-6.9-0.2C57.4,2.3,55.4,2,53.5,2c-0.6,0-1.1,0-1.6,0.1c-0.5,0-1-0.1-1.6-0.1
			c-2.4,0-4.9,0.4-7.5,1.2l-0.1,0l-0.1,0c-7,2.4-18.9,11.8-17,30.4c-0.1,0.1-0.1,0.1-0.2,0.2c-1.9,2.4-1.7,5.8-1.1,8.6
			c0.2,5.8,0.5,22.1-1.1,30.3c-0.5,0.1-1.1,0.2-1.6,0.3C15.8,74,8.4,76.7,4,88.3c-0.7,2-0.5,4.1,0.7,5.8c4.5,6.5,28.2,7.9,47.3,7.9
			s42.8-1.4,47.3-7.9C100.4,92.4,100.7,90.2,100,88.3z M29.4,36.7c1.2,0.1,2.3,0.1,3.5,0l0,0l1.5,7.7l1.6-7.9
			c1.6-0.2,3.2-0.5,4.7-0.9c6.6-1.6,12.4-4.8,16.8-7.8c3.2-2.2,5.7-4.3,7.1-5.6c0.8,2.3,3.2,8.2,7.1,12.7v5.4l1.2-4.1
			c0,0,0.1,0.1,0.1,0.1c0,0.1,0,0.1,0,0.2c0,0,0.1,0,0.2-0.1c0.6,0.6,1.2,1.1,1.9,1.6c0.1,0.8,0,2.1-0.4,4c-1.5,6.3-3.9,6.7-4.5,6.7
			c-0.1,0-0.1,0-0.1,0s-0.3,5.9-5.7,12.2c0,0,0,0.1,0,0.2c-4.2,4.3-8.5,6.4-12.8,6.2c-5.4-0.2-9.6-3.9-11.7-6.1c0,0,0-0.1,0-0.1
			c-5.5-6.4-5.8-12.4-5.8-12.4s0,0-0.1,0c-0.3,0-1.2-0.2-2.2-1.3l-1.1-1.8c-0.4-0.9-0.8-2.1-1.2-3.6C28.5,38.6,28.8,37.2,29.4,36.7z
			 M52.1,92.2l-3-3C26.8,89.1,13.4,82,13.4,82c3-2.9,6.3-3.8,9.2-4.3c4.6-0.8,15.9-3.7,16.9-6.3c0.3-0.8,0.4-2.3,0.4-4
			c2.8,2.1,6.7,4.2,11.2,4.4c0.3,0,0.5,0,0.8,0c4.1,0,8.2-1.5,12-4.5c0,1.7,0.1,3.3,0.4,4.1c1,2.7,12.3,5.5,16.9,6.3
			c2.9,0.5,6.2,1.4,9.2,4.3c-13.2,4.6-25,6.6-35.3,7.1L52.1,92.2z"/>
	</g>
</g>
</svg>
