<?xml version="1.0" encoding="utf-8"?>
<!-- Generator: Adobe Illustrator 23.0.1, SVG Export Plug-In . SVG Version: 6.00 Build 0)  -->
<svg version="1.1" xmlns="http://www.w3.org/2000/svg" xmlns:xlink="http://www.w3.org/1999/xlink" x="0px" y="0px"
	 viewBox="0 0 104 104" style="enable-background:new 0 0 104 104;" xml:space="preserve">
<style type="text/css">
	.st0{fill:#B91C3B;}
	.st1{fill:#FFFFFF;}
</style>
<g id="Camada_2">
</g>
<g id="Camada_1">
	<rect x="-0.1" class="st0" width="104" height="104"/>
	<g>
		<path class="st1" d="M95.1,84.6c-3.9-10.4-10.6-12.8-16-13.8c-4.5-0.8-10.1-2.5-12-3.6c-0.1-0.9-0.1-2.7,0.1-5.7
			c0.1-0.1,0.2-0.2,0.3-0.4l-0.1-0.1c2.6-3.5,3.9-6.9,4.5-9.1c1.7-1.2,3.5-3.6,4.6-8.1c0.6-2.6,1.1-6-0.8-8.3c0-0.1-0.1-0.1-0.1-0.2
			c1.7-16.7-9-25.1-15.3-27.3l-0.1,0l-0.1,0c-2.3-0.7-4.5-1-6.5-1.1c0,0,0,0-0.1,0c0,0,0,0,0,0c0,0-0.1,0-0.1,0c-0.5,0-1,0-1.4,0.1
			c-0.5,0-0.9-0.1-1.4-0.1c-2.1,0-4.4,0.4-6.8,1.1l-0.1,0l-0.1,0c-6.3,2.2-17,10.6-15.3,27.3c-0.1,0.1-0.1,0.1-0.1,0.2
			c-1.9,2.4-1.4,5.7-0.8,8.3c1.1,4.5,2.8,6.9,4.6,8.1c0.6,2.2,1.8,5.5,4.4,9v0c0,0,0,0,0,0c0.1,0.2,0.3,0.4,0.4,0.6
			c0.2,2.9,0.1,4.6,0.1,5.6c-2,1.1-7.5,2.7-12,3.5c-5.4,1-12,3.4-16,13.8c-0.7,1.8-0.4,3.7,0.7,5.2c4,5.8,25.3,7.1,42.5,7.1
			s38.4-1.2,42.5-7.1C95.5,88.3,95.8,86.4,95.1,84.6z M35.7,49c0,0,0,0-0.1,0c-0.5,0-2.8-0.3-4.1-6c-1-4.4,0-5.1,0.8-5.1
			c0.4,0,0.7,0.1,0.7,0.1c0-0.1,0-0.1,0-0.2l0.2,0.2l1.8,5.5c0,0-1.2-15.5,7.1-16.6c0,0,8.8,9.1,19.8,11.1c0,0-2.4-4.4-4.4-8.3
			c0,0,6.3,7.1,11.9,8.3c0,0,0.8-1.1,1.8-2.9c-0.1,0.9-0.2,1.9-0.4,2.9c0,0,0.3-0.1,0.7-0.1c0.8,0,1.8,0.7,0.8,5.1
			c-1.3,5.6-3.5,6-4.1,6c-0.1,0-0.1,0-0.1,0s-0.3,5.3-5.1,11c0,0,0,0.1,0,0.1c-3.8,3.8-7.6,5.7-11.5,5.6c-4.8-0.2-8.6-3.5-10.5-5.5
			c0,0,0-0.1,0-0.1C36,54.3,35.7,49,35.7,49z M52,79.4c-6.7,0-12.7-2.6-17-6.7c2.9-1,5.4-2.1,5.8-3.2c0.3-0.7,0.4-2.1,0.4-3.6
			c2.6,1.9,6,3.7,10.1,3.9c0.2,0,0.5,0,0.7,0c3.7,0,7.3-1.4,10.8-4c0,1.5,0.1,2.9,0.4,3.7c0.4,1.1,2.9,2.3,5.8,3.2
			C64.7,76.8,58.7,79.4,52,79.4z"/>
	</g>
</g>
</svg>
