<?xml version="1.0" encoding="utf-8"?>
<!-- Generator: Adobe Illustrator 23.0.1, SVG Export Plug-In . SVG Version: 6.00 Build 0)  -->
<svg version="1.1" xmlns="http://www.w3.org/2000/svg" xmlns:xlink="http://www.w3.org/1999/xlink" x="0px" y="0px"
	 viewBox="0 0 104 104" style="enable-background:new 0 0 104 104;" xml:space="preserve">
<style type="text/css">
	.st0{fill:#0A2463;}
	.st1{fill:#FFFFFF;}
</style>
<g id="Camada_2">
</g>
<g id="Camada_1">
	<rect class="st0" width="104" height="104"/>
	<g>
		<path class="st1" d="M100,88.3C95.6,76.7,88.2,74,82.2,73c-5-0.9-11.2-2.7-13.4-4c-0.1-1-0.1-3,0.1-6.3c0.1-0.1,0.2-0.3,0.4-0.4
			l-0.1-0.1c2.9-3.9,4.3-7.7,5-10.2c1.9-1.3,3.9-4,5.1-9c0.7-2.9,1.2-6.6-0.9-9.3c-0.1-0.1-0.1-0.1-0.2-0.2
			c1.9-18.5-10-27.9-17-30.4l-0.1,0l-0.1,0C58.5,2.4,56,2,53.7,2c0,0,0,0-0.1,0c0,0,0,0,0,0c0,0-0.1,0-0.1,0c-0.6,0-1.1,0-1.6,0.1
			c-0.5,0-1-0.1-1.6-0.1c-2.4,0-4.9,0.4-7.5,1.2l-0.1,0l-0.1,0c-7,2.4-18.9,11.8-17,30.4c-0.1,0.1-0.1,0.1-0.2,0.2
			c-2.1,2.6-1.6,6.3-0.9,9.3c1.2,5.1,3.2,7.7,5.1,9c0.6,2.5,2,6.1,4.9,10.1v0c0,0,0,0,0,0c0.2,0.2,0.3,0.4,0.5,0.7
			c0.2,3.2,0.2,5.2,0.1,6.2c-2.2,1.2-8.4,3.1-13.4,3.9C15.8,74,8.4,76.7,4,88.3c-0.7,2-0.5,4.1,0.7,5.8c4.5,6.5,28.2,7.9,47.3,7.9
			s42.8-1.4,47.3-7.9C100.4,92.4,100.7,90.2,100,88.3z M33.9,48.6c0,0,0,0-0.1,0c-0.6,0-3.1-0.4-4.5-6.7c-1.1-4.9,0.1-5.6,0.9-5.6
			c0.4,0,0.7,0.2,0.7,0.2c0-0.1,0-0.1,0-0.2l0.2,0.2l2,6.1c0,0-1.3-17.2,7.9-18.5c0,0,9.8,10.1,22,12.3c0,0-2.6-4.9-4.8-9.3
			c0,0,7.1,7.9,13.2,9.3c0,0,0.9-1.2,2-3.2c-0.1,1-0.2,2.1-0.4,3.2c0,0,0.3-0.2,0.7-0.2c0.9,0,2.1,0.8,0.9,5.6
			c-1.5,6.3-3.9,6.7-4.5,6.7c-0.1,0-0.1,0-0.1,0s-0.3,5.9-5.7,12.2c0,0,0,0.1,0,0.2c-4.2,4.3-8.5,6.4-12.8,6.2
			c-5.4-0.2-9.6-3.9-11.7-6.1c0,0,0-0.1,0-0.1C34.2,54.6,33.9,48.6,33.9,48.6z M52,82.5c-7.5,0-14.2-2.9-18.9-7.5
			c3.2-1.1,6-2.4,6.4-3.6c0.3-0.8,0.4-2.3,0.4-4c2.8,2.1,6.7,4.2,11.2,4.4c0.3,0,0.5,0,0.8,0c4.1,0,8.2-1.5,12-4.5
			c0,1.7,0.1,3.3,0.4,4.1c0.5,1.2,3.2,2.5,6.4,3.6C66.2,79.6,59.5,82.5,52,82.5z"/>
	</g>
</g>
</svg>
