<?xml version="1.0" encoding="utf-8"?>
<!-- Generator: Adobe Illustrator 23.0.1, SVG Export Plug-In . SVG Version: 6.00 Build 0)  -->
<svg version="1.1" id="Camada_1" xmlns="http://www.w3.org/2000/svg" xmlns:xlink="http://www.w3.org/1999/xlink" x="0px" y="0px"
	 viewBox="0 0 399.8 99.6" style="enable-background:new 0 0 399.8 99.6;" xml:space="preserve">
<style type="text/css">
	.st0{fill:#B9173B;}
	.st1{fill-rule:evenodd;clip-rule:evenodd;fill:#B9173B;}
</style>
<g>
	<path d="M138,76.2c-0.9,4.1-2.8,7.5-5.5,10.3c-1.4,1.4-3.2,2.5-5.5,3.4c-2.3,0.8-4.8,1.3-7.6,1.3c-3,0-5.8-0.5-8.4-1.4
		c-2.6-1-5.1-3-7.4-6.1v6.9h-5.7V11.5h5.7v32.4c2.4-3.1,4.8-5.1,7.4-6.1s5.4-1.4,8.4-1.4c2.8,0,5.3,0.4,7.6,1.3
		c2.3,0.9,4.1,2,5.5,3.4c2.7,2.7,4.6,6.2,5.5,10.3s1.4,8.3,1.4,12.5C139.4,67.9,138.9,72.1,138,76.2z M133.2,55.6
		c-0.3-2.7-1-5.1-2.1-7.2c-1.1-2.1-2.6-3.8-4.6-5.1c-2-1.3-4.6-1.9-7.9-1.9s-5.9,0.6-7.9,1.9c-2,1.3-3.5,3-4.6,5.1s-1.8,4.5-2.1,7.2
		c-0.3,2.7-0.5,5.4-0.5,8.1c0,2.8,0.2,5.5,0.5,8.2s1,5,2.1,7.1s2.6,3.8,4.6,5.1c2,1.3,4.6,1.9,7.9,1.9s5.9-0.6,7.9-1.9
		c2-1.3,3.5-3,4.6-5.1c1.1-2.1,1.8-4.5,2.1-7.1c0.3-2.7,0.5-5.4,0.5-8.2C133.7,61,133.5,58.3,133.2,55.6z"/>
	<path d="M196.4,75.3c-0.8,3.8-2.6,7.2-5.4,10c-1.9,1.9-4.1,3.4-6.6,4.4s-5.2,1.5-8.3,1.5c-6,0-10.9-2-14.9-5.9
		c-2.8-2.8-4.6-6.1-5.4-10c-0.8-3.8-1.2-7.7-1.2-11.5c0-3.8,0.4-7.7,1.2-11.5s2.6-7.2,5.4-10c3.9-3.9,8.9-5.9,14.9-5.9
		c3,0,5.8,0.5,8.3,1.5s4.7,2.5,6.6,4.4c2.8,2.8,4.6,6.1,5.4,10c0.8,3.8,1.2,7.7,1.2,11.5C197.7,67.6,197.3,71.4,196.4,75.3z
		 M191.9,59c-0.1-1.6-0.3-3.2-0.6-4.8s-0.8-3.1-1.4-4.5c-0.6-1.4-1.5-2.7-2.6-3.8c-1.5-1.5-3.2-2.6-5-3.4c-1.9-0.8-3.9-1.2-6-1.2
		c-4.4,0-8.1,1.5-11.1,4.5c-1.1,1.1-2,2.4-2.6,3.8c-0.6,1.4-1.1,2.9-1.4,4.5c-0.3,1.6-0.5,3.2-0.6,4.8s-0.1,3.2-0.1,4.8
		s0,3.1,0.1,4.8c0.1,1.6,0.3,3.2,0.6,4.8c0.3,1.6,0.8,3.1,1.4,4.5c0.6,1.4,1.5,2.7,2.6,3.8c3,3,6.7,4.5,11.1,4.5
		c2.1,0,4.2-0.4,6-1.2c1.9-0.8,3.6-1.9,5-3.4c1.1-1.1,2-2.4,2.6-3.8s1.1-2.9,1.4-4.5c0.3-1.6,0.5-3.2,0.6-4.8
		c0.1-1.6,0.1-3.2,0.1-4.8C192,62.2,192,60.6,191.9,59z"/>
	<path d="M254.7,75.3c-0.8,3.8-2.6,7.2-5.4,10c-1.9,1.9-4.1,3.4-6.6,4.4s-5.2,1.5-8.3,1.5c-6,0-10.9-2-14.9-5.9
		c-2.8-2.8-4.6-6.1-5.4-10c-0.8-3.8-1.2-7.7-1.2-11.5c0-3.8,0.4-7.7,1.2-11.5s2.6-7.2,5.4-10c3.9-3.9,8.9-5.9,14.9-5.9
		c3,0,5.8,0.5,8.3,1.5s4.7,2.5,6.6,4.4c2.8,2.8,4.6,6.1,5.4,10c0.8,3.8,1.2,7.7,1.2,11.5C256,67.6,255.6,71.4,254.7,75.3z M250.2,59
		c-0.1-1.6-0.3-3.2-0.6-4.8s-0.8-3.1-1.4-4.5c-0.6-1.4-1.5-2.7-2.6-3.8c-1.5-1.5-3.2-2.6-5-3.4c-1.9-0.8-3.9-1.2-6-1.2
		c-4.4,0-8.1,1.5-11.1,4.5c-1.1,1.1-2,2.4-2.6,3.8c-0.6,1.4-1.1,2.9-1.4,4.5c-0.3,1.6-0.5,3.2-0.6,4.8s-0.1,3.2-0.1,4.8
		s0,3.1,0.1,4.8c0.1,1.6,0.3,3.2,0.6,4.8c0.3,1.6,0.8,3.1,1.4,4.5c0.6,1.4,1.5,2.7,2.6,3.8c3,3,6.7,4.5,11.1,4.5
		c2.1,0,4.2-0.4,6-1.2c1.9-0.8,3.6-1.9,5-3.4c1.1-1.1,2-2.4,2.6-3.8s1.1-2.9,1.4-4.5c0.3-1.6,0.5-3.2,0.6-4.8
		c0.1-1.6,0.1-3.2,0.1-4.8C250.3,62.2,250.3,60.6,250.2,59z"/>
	<path d="M310.6,90.4L292.2,61L280,75.1v15.3h-5.7V11.5h5.7v55.6L306.5,37h7.2l-17.6,20l21.5,33.5L310.6,90.4L310.6,90.4z"/>
	<path class="st0" d="M349.1,17.1c0,3.1-1.1,5.7-3.2,7.9c-2.1,2.1-4.8,3.2-7.9,3.2s-5.7-1.1-7.9-3.2c-2.1-2.1-3.2-4.8-3.2-7.9
		s1.1-5.7,3.2-7.9C332.3,7,334.9,6,338,6s5.7,1.1,7.9,3.2C348,11.3,349.1,14,349.1,17.1z"/>
	<rect x="328.9" y="33.1" width="18.2" height="57.3"/>
	<path d="M380.7,90.4c-3.3,0-6.2-0.5-8.5-1.6s-4.2-2.5-5.7-4.2s-2.6-3.6-3.3-5.7c-0.7-2.1-1.1-4.1-1.1-6.2V47.1h-5.4v-14h5.4v-17
		h18.2v17.1h9.4v14h-9.4v24.4c0,2.4,1.2,3.7,3.7,3.7h5.8v15.3h-9.1V90.4z"/>
</g>
<g>
	<g>
		<g>
			<path class="st1" d="M44.9,1.8l43,24v48.4l-43,24.3L2,74.2V25.8L44.9,1.8z M38.1,43.3c0,10.4,1.1,21.3,1.1,32.7
				c0,4.9-5.2,4.9-5.2,0C34,64.9,35,53.7,35,43.3c-5.7-5.3-5.9-8.9-2.1-22.5v15.9c0,1.5,2.4,1.5,2.4,0l1.1-15.9l0.8,15.9
				c0,1.5,2.4,1.5,2.4,0V20.7C43.6,33.7,43.6,38.2,38.1,43.3z M52,21.5c8.5,0,9.6,18,1.3,20.2c0,10.4,1.1,22.1,1.1,33.2
				c0,4.9-5.2,4.9-5.2,0c0-11.1,1.1-22.8,1.1-33.2C42.3,39.5,43.6,21.5,52,21.5z"/>
		</g>
	</g>
</g>
</svg>
