<?xml version="1.0" encoding="utf-8"?>
<!-- Generator: Adobe Illustrator 22.0.0, SVG Export Plug-In . SVG Version: 6.00 Build 0)  -->
<svg version="1.1" id="Layer_1" xmlns="http://www.w3.org/2000/svg" xmlns:xlink="http://www.w3.org/1999/xlink" x="0px" y="0px"
	 viewBox="0 0 100 100.6" style="enable-background:new 0 0 100 100.6;" xml:space="preserve">
<style type="text/css">
	.st0{fill:#0A2463;}
</style>
<title>setng cog</title>
<path class="st0" d="M94.8,38.9h-9.3c-2,0-3.6-1.6-3.5-3.6c0-0.9,0.4-1.8,1-2.5l6.6-6.6c2-2,2-5.3,0-7.3l-8.4-8.4c-2-2-5.2-2-7.3,0
	L67.2,17c-1.4,1.4-3.7,1.4-5.1,0c-0.7-0.7-1-1.6-1-2.5V5.2C61.1,2.3,58.8,0,56,0H44c-2.8,0-5.2,2.3-5.2,5.2v9.4c0,2-1.7,3.5-3.7,3.5
	c-0.9,0-1.8-0.4-2.4-1l-6.6-6.6c-2-2-5.2-2-7.3,0l-8.4,8.4c-2,2-2,5.3,0,7.3l6.6,6.7c1.4,1.4,1.4,3.7,0,5.1c-0.7,0.7-1.6,1-2.5,1
	H5.2C2.3,38.9,0,41.2,0,44v12c0,2.8,2.3,5.2,5.2,5.2h9.4c1.5,0,2.8,0.9,3.3,2.2c0.6,1.3,0.2,2.9-0.8,3.9l-6.6,6.6c-2,2-2,5.3,0,7.3
	l8.4,8.4c2,2,5.2,2,7.3,0l6.7-6.6c1.4-1.4,3.7-1.4,5.1,0c0.7,0.7,1,1.6,1,2.5v9.3c0,2.8,2.3,5.1,5.1,5.1h12c2.8,0,5.2-2.3,5.2-5.2
	l0,0v-9.3c0-1.5,0.9-2.8,2.2-3.3c1.3-0.6,2.9-0.3,3.9,0.8l6.6,6.6c2,2,5.2,2,7.3,0l8.4-8.4c2-2,2-5.3,0-7.3L83,67.2
	c-1.4-1.4-1.4-3.7,0-5.1c0.7-0.7,1.6-1,2.5-1h9.3c2.8,0,5.1-2.3,5.1-5.1V44C100,41.2,97.7,38.9,94.8,38.9z M96.3,56
	c0,0.8-0.6,1.4-1.4,1.5c0,0,0,0,0,0h-9.3c-4,0-7.3,3.3-7.3,7.3c0,1.9,0.8,3.8,2.1,5.2l6.7,6.6c0.6,0.6,0.6,1.5,0,2.1l-8.4,8.4
	c-0.6,0.6-1.5,0.6-2.1,0l-6.6-6.6c-2.9-2.8-7.5-2.8-10.3,0c-1.4,1.4-2.1,3.2-2.1,5.2v9.3c0,0.8-0.6,1.4-1.4,1.4c0,0,0,0,0,0H44
	c-0.8,0-1.4-0.6-1.5-1.4c0,0,0,0,0,0v-9.4c0-3-1.8-5.6-4.5-6.7c-2.7-1.1-5.9-0.5-8,1.6l-6.6,6.6c-0.6,0.6-1.5,0.6-2,0l-8.4-8.4
	c-0.6-0.6-0.6-1.5,0-2.1l6.6-6.6c2.8-2.8,2.9-7.4,0-10.3c-1.4-1.4-3.2-2.2-5.2-2.1H5.2c-0.8,0-1.4-0.6-1.5-1.4c0,0,0,0,0,0V44
	c0-0.8,0.6-1.4,1.4-1.5c0,0,0,0,0,0h9.4c4,0,7.3-3.3,7.3-7.3c0-1.9-0.8-3.8-2.1-5.2l-6.6-6.6c-0.6-0.6-0.6-1.5,0-2l8.4-8.4
	c0.6-0.6,1.5-0.6,2,0l6.6,6.6c2.9,2.8,7.5,2.8,10.3,0c1.4-1.4,2.1-3.2,2.1-5.2V5.1c0-0.8,0.6-1.4,1.4-1.5c0,0,0,0,0,0H56
	c0.8,0,1.4,0.6,1.5,1.4c0,0,0,0,0,0v9.4c0,4,3.3,7.3,7.3,7.3c1.9,0,3.8-0.8,5.2-2.1l6.6-6.6c0.6-0.6,1.5-0.6,2.1,0l8.4,8.4
	c0.6,0.6,0.6,1.5,0,2l-6.6,6.6c-2.8,2.9-2.8,7.5,0,10.3c1.4,1.4,3.2,2.1,5.2,2.1h9.4c0.8,0,1.4,0.6,1.4,1.4c0,0,0,0,0,0L96.3,56
	C96.3,56,96.3,56,96.3,56z"/>
<path class="st0" d="M50,33.3c-9.2,0-16.7,7.5-16.6,16.7c0,9.2,7.5,16.7,16.7,16.6c9.2,0,16.6-7.5,16.6-16.6
	C66.7,40.8,59.2,33.3,50,33.3z M50,63c-7.2,0-13-5.8-13-13s5.8-13,13-13s13,5.8,13,13S57.2,63,50,63z"/>
<image style="overflow:visible;" width="1920" height="1080" xlink:href="8975331A.jpg"  transform="matrix(1 0 0 1 -978 131.276)">
</image>
</svg>
