<svg xmlns="http://www.w3.org/2000/svg" xmlns:xlink="http://www.w3.org/1999/xlink" version="1.1" x="0px" y="0px" viewBox="-911 493 96 120" style="enable-background:new -911 493 96 96;" xml:space="preserve"><style type="text/css">
	.st0{fill-rule:evenodd;clip-rule:evenodd;}
</style><g><path class="st0" d="M-841.1,509.8c1.7,1.2,3.3,2.5,4.8,4c1.5,1.5,2.8,3,4.1,4.7l8.5-2.6c1.2-0.4,2.5,0.3,2.9,1.4l4.1,9.7   c0.5,1.1,0,2.4-1,3l-7.7,4.4c0.4,2,0.5,4.1,0.6,6.2c0,2.1-0.1,4.1-0.5,6.2l7.8,4.2c1.1,0.6,1.6,2,1.1,3.1l-3.9,9.7   c-0.5,1.1-1.7,1.7-2.9,1.4l-8.6-2.4c-1.2,1.7-2.5,3.3-4,4.8c-1.4,1.5-3,2.8-4.7,4.1l2.6,8.5c0.4,1.2-0.3,2.5-1.5,2.9l-9.7,4.1   c-1.1,0.5-2.4,0-3-1l-4.4-7.7c-2,0.4-4.1,0.5-6.2,0.5c-2.1,0-4.1-0.1-6.2-0.4l-4.2,7.8c-0.6,1.1-1.9,1.6-3.1,1.1l-9.7-3.9   c-1.1-0.5-1.7-1.7-1.4-2.9l2.4-8.6c-1.7-1.2-3.3-2.5-4.8-4c-1.5-1.4-2.9-3-4.1-4.7l-8.5,2.6c-1.2,0.4-2.5-0.3-2.9-1.5l-4.1-9.7   c-0.5-1.1,0-2.4,1-3l7.8-4.4c-0.4-2-0.5-4.1-0.6-6.2c0-2.1,0.1-4.1,0.5-6.2l-7.8-4.2c-1.1-0.6-1.6-1.9-1-3.1l3.9-9.7   c0.5-1.1,1.7-1.7,2.9-1.4l8.6,2.4c1.2-1.7,2.5-3.3,4-4.8c1.5-1.5,3-2.9,4.7-4.1l-2.6-8.5c-0.4-1.2,0.3-2.5,1.4-2.9l9.7-4.1   c1.1-0.5,2.4,0,3,1l4.4,7.8c2-0.4,4.1-0.5,6.2-0.6c2.1,0,4.1,0.1,6.2,0.5l4.2-7.8c0.6-1.1,2-1.6,3.1-1l9.7,3.9   c1.1,0.5,1.7,1.7,1.4,2.9L-841.1,509.8z M-845.6,533.6c-1.9-4.5-5.5-8.2-10.3-10.2l0,0c-4.8-2-10-1.8-14.5,0.1   c-4.5,1.9-8.2,5.5-10.2,10.3s-1.8,10,0.1,14.5c1.9,4.4,5.5,8.2,10.3,10.1l0,0c4.8,1.9,10,1.7,14.5-0.1c4.4-1.9,8.2-5.5,10.1-10.3h0   C-843.5,543.3-843.7,538.1-845.6,533.6L-845.6,533.6z"/></g><text x="-911" y="604" fill="#000000" font-size="5px" font-weight="bold" font-family="'Helvetica Neue', Helvetica, Arial-Unicode, Arial, Sans-serif">Created by FMF Design</text><text x="-911" y="609" fill="#000000" font-size="5px" font-weight="bold" font-family="'Helvetica Neue', Helvetica, Arial-Unicode, Arial, Sans-serif">from the Noun Project</text></svg>