<?xml version="1.0" encoding="utf-8"?>
<!-- Generator: Adobe Illustrator 23.0.1, SVG Export Plug-In . SVG Version: 6.00 Build 0)  -->
<svg version="1.1" id="Camada_1" xmlns="http://www.w3.org/2000/svg" xmlns:xlink="http://www.w3.org/1999/xlink" x="0px" y="0px"
	 viewBox="0 0 6442 6709.9" style="enable-background:new 0 0 6442 6709.9;" xml:space="preserve">
<style type="text/css">
	.st0{fill:#0A2463;}
</style>
<g>
	<path class="st0" d="M3221,897.3c-677,0-1225.5,549.2-1225.5,1225.5c0,677,548.5,1226.2,1225.5,1226.2s1225.5-549.2,1225.5-1226.2
		C4446.5,1446.5,3898,897.3,3221,897.3z"/>
	<path class="st0" d="M2014.5,4750.2v1062.3h2413V4750.2H4575v1062.3h743.8v-1411c0-413.5-338.2-752.4-751.7-752.4H1875.6
		c-413.5,0-752.4,338.8-752.4,752.4v1411H1867V4750.2H2014.5z"/>
</g>
<text transform="matrix(1 0 0 1 352.922 7538.8828)" style="font-family:'Arial-BoldMT'; font-size:3.2768px;">Created by annes curnio</text>
<text transform="matrix(1 0 0 1 352.922 7542.1592)" style="font-family:'Arial-BoldMT'; font-size:3.2768px;">from the Noun Project</text>
</svg>
